<?xml version="1.0" standalone="no"?>
<!DOCTYPE svg PUBLIC "-//W3C//DTD SVG 20010904//EN"
 "http://www.w3.org/TR/2001/REC-SVG-20010904/DTD/svg10.dtd">
<svg version="1.0" xmlns="http://www.w3.org/2000/svg"
 width="260.000000pt" height="260.000000pt" viewBox="0 0 260.000000 260.000000"
 preserveAspectRatio="xMidYMid meet">
<metadata>
Created by potrace 1.14, written by Peter Selinger 2001-2017
</metadata>
<g transform="translate(0.000000,260.000000) scale(0.100000,-0.100000)"
fill="#000000" stroke="none">
<path d="M625 2030 c-33 -6 -87 -19 -121 -30 -166 -56 -293 -197 -346 -386
-21 -77 -22 -97 -26 -671 l-3 -593 270 0 271 0 0 195 0 195 70 0 70 0 0 220 0
220 -70 0 -70 0 1 133 c0 146 10 190 51 220 26 19 28 19 53 3 14 -9 30 -28 35
-42 6 -15 10 -253 10 -585 l0 -559 271 0 270 0 -3 618 c-4 598 -4 619 -26 695
-30 108 -76 189 -138 246 -96 88 -195 120 -384 126 -69 2 -152 0 -185 -5z"/>
<path d="M1620 1418 c0 -640 2 -661 60 -783 40 -83 123 -173 197 -212 100 -53
154 -65 331 -70 l162 -6 0 240 0 241 -71 10 c-79 12 -114 30 -132 70 -9 20
-13 173 -15 560 l-3 532 -264 0 -265 0 0 -582z"/>
</g>
</svg>
