<?xml version="1.0" standalone="no"?>
<!DOCTYPE svg PUBLIC "-//W3C//DTD SVG 20010904//EN"
 "http://www.w3.org/TR/2001/REC-SVG-20010904/DTD/svg10.dtd">
<svg version="1.0" xmlns="http://www.w3.org/2000/svg"
 width="260.000000pt" height="260.000000pt" viewBox="0 0 260.000000 260.000000"
 preserveAspectRatio="xMidYMid meet">
<metadata>
Created by potrace 1.14, written by Peter Selinger 2001-2017
</metadata>
<g transform="translate(0.000000,260.000000) scale(0.100000,-0.100000)"
fill="#000000" stroke="none">
<path d="M1860 2036 c-160 -34 -308 -176 -360 -344 -36 -116 -24 -266 30 -372
53 -104 160 -203 214 -198 28 3 37 15 119 161 l88 157 -20 26 c-31 39 -27 89
8 125 16 16 34 29 39 29 22 0 53 -38 58 -71 6 -33 -17 -83 -230 -503 l-237
-466 486 0 485 0 0 210 0 210 -115 0 c-63 0 -115 3 -115 6 0 3 38 90 85 192
100 221 116 292 97 420 -33 211 -194 384 -391 422 -69 13 -171 12 -241 -4z"/>
<path d="M520 1982 c-85 -22 -144 -58 -213 -127 -104 -104 -151 -216 -150
-360 0 -118 21 -192 95 -341 67 -135 70 -165 21 -204 -40 -31 -66 -34 -122
-10 -83 36 -82 41 -79 -197 l3 -207 55 -19 c70 -25 211 -33 293 -17 141 27
289 136 351 257 85 168 72 328 -45 550 -53 103 -60 122 -56 158 4 29 15 49 41
72 32 30 38 31 90 26 l56 -6 -2 204 -3 204 -40 14 c-65 22 -219 24 -295 3z"/>
<path d="M960 1285 l0 -715 225 0 225 0 0 715 0 715 -225 0 -225 0 0 -715z"/>
</g>
</svg>
